<svg width="7" height="12" viewBox="0 0 7 12" fill="none" xmlns="http://www.w3.org/2000/svg">
<path d="M7 0.477931C7 0.397581 6.96648 0.320521 6.90681 0.263705C6.84714 0.206889 6.76621 0.174969 6.68182 0.174969H5.09091C4.28981 0.136973 3.50547 0.402428 2.90928 0.913335C2.31308 1.42424 1.9535 2.13907 1.90909 2.90162V4.53762H0.318182C0.233795 4.53762 0.152864 4.56954 0.0931934 4.62635C0.0335227 4.68317 0 4.76023 0 4.84058V6.41598C0 6.49633 0.0335227 6.57339 0.0931934 6.63021C0.152864 6.68702 0.233795 6.71894 0.318182 6.71894H1.90909V10.7786C1.90909 10.859 1.94261 10.936 2.00228 10.9929C2.06195 11.0497 2.14289 11.0816 2.22727 11.0816H4.13636C4.22075 11.0816 4.30168 11.0497 4.36135 10.9929C4.42102 10.936 4.45455 10.859 4.45455 10.7786V6.71894H6.12182C6.19258 6.71991 6.26165 6.69839 6.31813 6.65779C6.3746 6.61718 6.41525 6.55982 6.43364 6.49475L6.89182 4.91935C6.90448 4.87459 6.90618 4.82765 6.89679 4.78216C6.8874 4.73667 6.86718 4.69384 6.83767 4.65697C6.80816 4.62009 6.77016 4.59016 6.7266 4.56946C6.68303 4.54877 6.63505 4.53788 6.58636 4.53762H4.45455V2.90162C4.47037 2.75164 4.54435 2.61267 4.66202 2.51183C4.77968 2.41099 4.9326 2.35554 5.09091 2.35629H6.68182C6.76621 2.35629 6.84714 2.32437 6.90681 2.26756C6.96648 2.21074 7 2.13368 7 2.05333V0.477931Z" fill="white"/>
</svg>
