<svg width="14" height="15" viewBox="0 0 14 15" fill="none" xmlns="http://www.w3.org/2000/svg">
<path fill-rule="evenodd" clip-rule="evenodd" d="M10.1587 8.95774C9.9849 8.87154 9.13265 8.45612 8.97398 8.39827C8.81532 8.34099 8.69982 8.31264 8.58374 8.48505C8.46824 8.65631 8.13632 9.04395 8.0354 9.15851C7.9339 9.27364 7.83299 9.28753 7.65974 9.2019C7.48649 9.11511 6.92766 8.93402 6.26557 8.34851C5.75049 7.8926 5.40224 7.32965 5.30132 7.15723C5.20041 6.9854 5.29024 6.89225 5.37716 6.80662C5.45532 6.72967 5.55041 6.60585 5.63732 6.50576C5.72424 6.40509 5.75282 6.33335 5.81057 6.21821C5.86891 6.10366 5.83974 6.00356 5.79599 5.91736C5.75282 5.83115 5.40632 4.9847 5.26166 4.64045C5.12108 4.30546 4.97816 4.35116 4.87199 4.34538C4.77049 4.34075 4.65499 4.33959 4.53949 4.33959C4.42399 4.33959 4.23616 4.38241 4.07749 4.55482C3.91824 4.72666 3.47083 5.14265 3.47083 5.9891C3.47083 6.83497 4.09149 7.65249 4.17841 7.76762C4.26533 7.88218 5.40049 9.61905 7.1394 10.3637C7.55357 10.5407 7.87615 10.6466 8.12757 10.7253C8.5429 10.8566 8.9209 10.8381 9.21957 10.7935C9.55207 10.7444 10.2451 10.3776 10.3897 9.97603C10.5338 9.5745 10.5338 9.23025 10.4906 9.15851C10.4475 9.08676 10.332 9.04395 10.1581 8.95774H10.1587ZM6.99591 13.2409H6.99357C5.96074 13.2411 4.94688 12.9657 4.05824 12.4436L3.84824 12.3198L1.66541 12.888L2.24816 10.7773L2.11108 10.561C1.53366 9.64934 1.22809 8.59427 1.22966 7.51768C1.23083 4.36447 3.81733 1.79909 6.99824 1.79909C8.53824 1.79909 9.98607 2.39502 11.0746 3.47579C11.6115 4.00609 12.037 4.63673 12.3266 5.3312C12.6161 6.02568 12.764 6.77021 12.7616 7.52173C12.7604 10.6749 10.1739 13.2409 6.99591 13.2409V13.2409ZM11.9029 2.6548C11.2602 2.01312 10.4955 1.50433 9.65304 1.15792C8.81062 0.811508 7.90727 0.63436 6.99532 0.636742C3.17216 0.636742 0.0594999 3.72342 0.0583332 7.5171C0.0577499 8.72979 0.376833 9.91354 0.984082 10.9567L0 14.5224L3.67733 13.5655C4.69459 14.1152 5.83454 14.4032 6.99299 14.4032H6.99591C10.8191 14.4032 13.9317 11.3166 13.9329 7.52231C13.9357 6.61816 13.7578 5.72243 13.4093 4.88694C13.0609 4.05145 12.5489 3.29277 11.9029 2.6548" fill="white"/>
</svg>
