<svg width="14" height="15" viewBox="0 0 14 15" fill="none" xmlns="http://www.w3.org/2000/svg">
<path fill-rule="evenodd" clip-rule="evenodd" d="M4.11409 0.220856C4.86055 0.186773 5.09855 0.179199 7 0.179199C8.90145 0.179199 9.13945 0.187404 9.88527 0.220856C10.6311 0.254308 11.1402 0.372337 11.5856 0.543384C12.0521 0.718217 12.4753 0.991513 12.8253 1.34497C13.1816 1.69148 13.4565 2.11058 13.6322 2.57385C13.8053 3.01567 13.9236 3.52061 13.958 4.25907C13.9924 5.0007 14 5.23676 14 7.12206C14 9.00799 13.9917 9.24405 13.958 9.98441C13.9243 10.7229 13.8053 11.2278 13.6322 11.6696C13.4565 12.133 13.1812 12.5528 12.8253 12.8998C12.4753 13.2532 12.0521 13.5259 11.5856 13.7001C11.1402 13.8718 10.6311 13.9892 9.88654 14.0233C9.13945 14.0573 8.90145 14.0649 7 14.0649C5.09855 14.0649 4.86055 14.0567 4.11409 14.0233C3.36955 13.9898 2.86045 13.8718 2.415 13.7001C1.94786 13.5259 1.52461 13.2528 1.17473 12.8998C0.818605 12.5531 0.543018 12.1335 0.367182 11.6703C0.194727 11.2284 0.0763636 10.7235 0.042 9.98504C0.00763635 9.24341 0 9.00736 0 7.12206C0 5.23612 0.00827272 5.00007 0.042 4.26034C0.0757273 3.52061 0.194727 3.01567 0.367182 2.57385C0.543278 2.11063 0.819076 1.69105 1.17536 1.34434C1.52475 0.991199 1.94757 0.717866 2.41436 0.543384C2.85982 0.372337 3.36891 0.254939 4.11345 0.220856H4.11409ZM9.82864 1.47057C9.09045 1.43712 8.869 1.43018 7 1.43018C5.131 1.43018 4.90955 1.43712 4.17136 1.47057C3.48855 1.5015 3.11818 1.61448 2.87127 1.70978C2.54482 1.83602 2.31127 1.9856 2.06627 2.2286C1.83403 2.4527 1.6553 2.72551 1.54318 3.02703C1.44709 3.27193 1.33318 3.63927 1.302 4.31651C1.26827 5.04867 1.26127 5.26831 1.26127 7.12206C1.26127 8.9758 1.26827 9.19545 1.302 9.9276C1.33318 10.6048 1.44709 10.9722 1.54318 11.2171C1.65518 11.5181 1.834 11.7914 2.06627 12.0155C2.29218 12.2459 2.56773 12.4232 2.87127 12.5343C3.11818 12.6296 3.48855 12.7426 4.17136 12.7735C4.90955 12.807 5.13036 12.8139 7 12.8139C8.86964 12.8139 9.09045 12.807 9.82864 12.7735C10.5115 12.7426 10.8818 12.6296 11.1287 12.5343C11.4552 12.4081 11.6887 12.2585 11.9337 12.0155C12.166 11.7914 12.3448 11.5181 12.4568 11.2171C12.5529 10.9722 12.6668 10.6048 12.698 9.9276C12.7317 9.19545 12.7387 8.9758 12.7387 7.12206C12.7387 5.26831 12.7317 5.04867 12.698 4.31651C12.6668 3.63927 12.5529 3.27193 12.4568 3.02703C12.3295 2.70324 12.1787 2.4716 11.9337 2.2286C11.7078 1.99827 11.4327 1.821 11.1287 1.70978C10.8818 1.61448 10.5115 1.5015 9.82864 1.47057V1.47057ZM6.10591 9.26235C6.60524 9.46851 7.16124 9.49633 7.67895 9.34107C8.19667 9.18581 8.64398 8.85709 8.94448 8.41106C9.24498 7.96503 9.38004 7.42935 9.32658 6.89553C9.27312 6.36171 9.03446 5.86286 8.65136 5.48417C8.40715 5.24211 8.11186 5.05675 7.78676 4.94146C7.46165 4.82617 7.11482 4.7838 6.77122 4.81742C6.42763 4.85103 6.09582 4.95978 5.79969 5.13585C5.50356 5.31192 5.25047 5.55092 5.05865 5.83564C4.86682 6.12037 4.74103 6.44373 4.69033 6.78246C4.63963 7.12119 4.66528 7.46686 4.76543 7.79458C4.86559 8.1223 5.03776 8.42391 5.26955 8.67771C5.50134 8.93151 5.78698 9.13118 6.10591 9.26235ZM4.45582 4.59864C4.78992 4.26726 5.18657 4.0044 5.6231 3.82506C6.05963 3.64572 6.5275 3.55341 7 3.55341C7.4725 3.55341 7.94037 3.64572 8.3769 3.82506C8.81343 4.0044 9.21008 4.26726 9.54418 4.59864C9.87829 4.93002 10.1433 5.32343 10.3241 5.7564C10.505 6.18936 10.598 6.65342 10.598 7.12206C10.598 7.5907 10.505 8.05475 10.3241 8.48772C10.1433 8.92069 9.87829 9.31409 9.54418 9.64547C8.86942 10.3147 7.95425 10.6907 7 10.6907C6.04575 10.6907 5.13058 10.3147 4.45582 9.64547C3.78106 8.97622 3.40198 8.06852 3.40198 7.12206C3.40198 6.17559 3.78106 5.26789 4.45582 4.59864V4.59864ZM11.396 4.08487C11.4788 4.00741 11.5451 3.91426 11.5909 3.81093C11.6368 3.7076 11.6612 3.5962 11.6629 3.48332C11.6646 3.37045 11.6434 3.25839 11.6006 3.15378C11.5578 3.04917 11.4943 2.95414 11.4138 2.87431C11.3333 2.79449 11.2375 2.73149 11.132 2.68905C11.0266 2.64661 10.9136 2.62559 10.7998 2.62724C10.686 2.62889 10.5736 2.65316 10.4695 2.69863C10.3653 2.7441 10.2714 2.80984 10.1933 2.89196C10.0414 3.05167 9.95822 3.2638 9.96145 3.48332C9.96467 3.70285 10.054 3.91249 10.2106 4.06773C10.3671 4.22298 10.5784 4.31161 10.7998 4.31481C11.0211 4.31801 11.235 4.23553 11.396 4.08487V4.08487Z" fill="white"/>
</svg>
