<svg width="13" height="15" viewBox="0 0 13 15" fill="none" xmlns="http://www.w3.org/2000/svg">
<path d="M6.15785 0.63874C5.05865 0.652193 2.69547 0.835333 1.37369 2.0648C0.390493 3.05255 0.0472082 4.5129 0.00697286 6.3187C-0.0264139 8.11799 -0.0666494 11.497 3.14576 12.417V13.8183C3.14576 13.8183 3.12564 14.379 3.49119 14.4941C3.94148 14.6386 4.19787 14.2072 4.62591 13.7437L5.4242 12.8284C7.62216 13.0137 9.30563 12.5867 9.49953 12.5233C9.94554 12.3788 12.4577 12.0533 12.8682 8.67392C13.2894 5.18383 12.6631 2.98485 11.5327 1.99016H11.5259C11.1847 1.67162 9.81371 0.658703 6.75068 0.647419C6.75068 0.647419 6.52339 0.631796 6.15785 0.638306V0.63874ZM6.19552 1.61997C6.50756 1.6178 6.69718 1.63126 6.69718 1.63126C9.28979 1.6382 10.5272 2.42935 10.8192 2.69581C11.7711 3.52298 12.2616 5.50542 11.9025 8.41917C11.5614 11.2444 9.52393 11.4232 9.14683 11.5451C8.98631 11.5972 7.5036 11.9678 5.63565 11.8459C5.63565 11.8459 4.24453 13.548 3.80965 13.9863C3.74073 14.0631 3.66026 14.0857 3.6089 14.0744C3.53527 14.0562 3.51302 13.9637 3.5173 13.837L3.53057 11.5113C0.806117 10.7475 0.96663 7.86541 0.995736 6.35993C1.02912 4.85444 1.30777 3.6228 2.13731 2.78869C3.25405 1.76492 5.26069 1.62692 6.19466 1.61997H6.19552ZM6.40098 3.12502C6.37855 3.12479 6.35631 3.12907 6.33552 3.1376C6.31473 3.14612 6.29582 3.15874 6.27986 3.17472C6.2639 3.19069 6.25123 3.20971 6.24255 3.23068C6.23388 3.25164 6.22939 3.27414 6.22933 3.29688C6.22933 3.39409 6.30724 3.47091 6.40098 3.47091C6.82537 3.46272 7.24717 3.53981 7.64204 3.69772C8.03692 3.85563 8.39705 4.09123 8.70167 4.39095C9.32361 5.0033 9.62665 5.82613 9.63821 6.90197C9.63821 6.99701 9.71397 7.076 9.80985 7.076V7.06905C9.85504 7.06917 9.89844 7.05117 9.9306 7.01898C9.96275 6.98678 9.98104 6.94301 9.9815 6.8972C10.0023 6.3908 9.92129 5.88541 9.74344 5.41175C9.56559 4.93808 9.29459 4.50602 8.94693 4.14184C8.26935 3.47047 7.41071 3.12459 6.40098 3.12459V3.12502ZM4.1448 3.52298C4.02364 3.50504 3.90008 3.52969 3.79466 3.59286H3.78568C3.54095 3.7383 3.32049 3.92213 3.13249 4.1375C2.97626 4.32064 2.89151 4.50595 2.86925 4.68432C2.85598 4.79065 2.86497 4.89697 2.89622 4.99852L2.90734 5.00547C3.08327 5.52972 3.31312 6.03401 3.59392 6.50878C3.95561 7.17579 4.40074 7.79266 4.91826 8.34409L4.93367 8.36666L4.95807 8.38489L4.97347 8.40311L4.99145 8.41874C5.5373 8.94498 6.14719 9.3984 6.80633 9.76799C7.55967 10.1837 8.01681 10.3803 8.29118 10.4619V10.4663C8.37165 10.491 8.44485 10.5023 8.51847 10.5023C8.7523 10.4849 8.97366 10.3887 9.14725 10.2289C9.35871 10.0382 9.538 9.81378 9.67802 9.56445V9.56011C9.80943 9.30927 9.76491 9.07188 9.57529 8.91131C9.19554 8.57475 8.7849 8.27582 8.34897 8.01861C8.05705 7.85803 7.76042 7.95524 7.64014 8.11799L7.38375 8.44564C7.25234 8.60839 7.01349 8.58582 7.01349 8.58582L7.00665 8.59016C5.22559 8.12884 4.75047 6.30047 4.75047 6.30047C4.75047 6.30047 4.72821 6.0518 4.893 5.92508L5.21403 5.66295C5.3677 5.53623 5.47471 5.23591 5.30991 4.9395C5.05797 4.49691 4.76378 4.08046 4.43158 3.69614C4.35896 3.60554 4.25707 3.5439 4.14394 3.52212L4.1448 3.52298ZM6.69718 4.03856C6.46989 4.03856 6.46989 4.38661 6.69932 4.38661C6.98194 4.39126 7.26089 4.45233 7.52022 4.56634C7.77956 4.68034 8.01419 4.84505 8.21071 5.05104C8.38998 5.25154 8.52774 5.48648 8.61582 5.74195C8.70391 5.99742 8.74052 6.26822 8.7235 6.53829C8.72428 6.584 8.74268 6.62758 8.77476 6.6597C8.80684 6.69182 8.85005 6.70993 8.89514 6.71015L8.90199 6.71926C8.94741 6.71892 8.99087 6.70048 9.02299 6.66792C9.0551 6.63535 9.0733 6.59129 9.07363 6.54524C9.08904 5.85564 8.87759 5.27714 8.46282 4.81365C8.04592 4.35015 7.46422 4.0902 6.72157 4.03856H6.69718V4.03856ZM6.9784 4.97422C6.74426 4.96728 6.73527 5.32227 6.96727 5.32922C7.53142 5.35873 7.80536 5.64776 7.84132 6.24232C7.8421 6.28745 7.86027 6.33048 7.89195 6.36219C7.92363 6.3939 7.9663 6.41178 8.01082 6.412H8.01767C8.04055 6.41101 8.06302 6.4054 8.08375 6.39551C8.10447 6.38562 8.12305 6.37164 8.13839 6.35439C8.15373 6.33713 8.16553 6.31696 8.1731 6.29503C8.18066 6.27311 8.18385 6.24988 8.18246 6.22669C8.14223 5.4516 7.72532 5.01502 6.98524 4.97465H6.9784V4.97422Z" fill="white"/>
</svg>
